<svg version="1.1" id="heart-outline" xmlns="http://www.w3.org/2000/svg" xmlns:xlink="http://www.w3.org/1999/xlink" x="0px" y="0px"
	viewBox="0 0 1920 1080" style="enable-background:new 0 0 1920 1080;" xml:space="preserve">
<style type="text/css">
	.st0{fill:#C1272D;}
</style>
<g>
	<path class="st0" d="M568.2,592.65c-52.57-52.57-86.1-110.17-99.66-171.18c-12.08-54.35-7.38-109.81,13.57-160.4
		c20.12-48.59,53.85-90.12,97.53-120.11c44.77-30.73,96.84-46.98,150.59-46.98c81.25,0,160.92,36.73,230.41,106.22l0.35,0.35
		l0.35-0.35c68.95-68.95,148.12-105.4,228.94-105.4c53.82,0,106,16.32,150.91,47.19c43.81,30.12,77.64,71.8,97.83,120.53
		c20.91,50.47,25.64,105.75,13.7,159.86c-13.41,60.74-46.69,118.02-98.93,170.26L961,985.44L568.2,592.65z M741.15,112.32
		c-102.7,0-198.39,64.45-238.12,160.37c-43.85,105.86-13.78,221.8,82.51,318.09l376.25,376.25l376.25-376.25
		c95.67-95.67,125.46-211.11,81.72-316.71c-39.88-96.27-135.82-160.96-238.74-160.96c-77.4,0-153.2,34.82-219.23,100.71
		C895.25,147.41,818.96,112.32,741.15,112.32z"/>
	<path d="M730.21,94.48c0.01,0,0.02,0,0.03,0c81.12,0.01,160.67,36.69,230.06,106.07l0.71,0.71l0.71-0.71
		c68.86-68.86,147.9-105.25,228.59-105.25c53.72,0,105.8,16.29,150.63,47.1c21.56,14.82,40.88,32.64,57.42,52.98
		c16.68,20.49,30.21,43.15,40.23,67.33c20.87,50.38,25.6,105.56,13.67,159.56c-6.43,29.11-17.67,57.9-33.43,85.58
		c-16.73,29.39-38.73,57.8-65.36,84.44L961,984.74L568.56,592.29c-26.81-26.81-48.96-55.39-65.81-84.94
		c-15.87-27.82-27.22-56.76-33.71-86c-12.05-54.25-7.37-109.62,13.55-160.11c9.99-24.12,23.48-46.7,40.11-67.11
		c16.49-20.26,35.75-38.01,57.25-52.77C624.61,110.69,676.57,94.48,730.21,94.48 M961.79,967.73l0.71-0.71l375.9-375.9
		c95.83-95.83,125.65-211.47,81.82-317.28c-39.96-96.45-136.07-161.25-239.17-161.25c-0.01,0-0.02,0-0.02,0
		c-77.41,0.01-153.2,34.75-219.23,100.5c-66.56-66.27-142.84-101.29-220.64-101.29c-102.9,0-198.77,64.57-238.58,160.68
		c-43.93,106.06-13.82,222.2,82.62,318.63l375.9,375.9L961.79,967.73 M730.23,93.48C508.56,93.46,344.63,369.79,567.85,593
		L961,986.15L1354.15,593c222.32-222.32,57.57-498.7-163.86-498.7c-74.22,0-154.78,31.03-229.3,105.55
		C885.92,124.76,804.8,93.49,730.23,93.48L730.23,93.48z M961.79,966.32l-375.9-375.9c-213.4-213.4-56.66-477.6,155.26-477.6
		c71.31,0,148.84,29.89,220.64,101.7c71.23-71.23,148.29-100.91,219.23-100.91c211.74-0.02,369.25,264.23,156.67,476.82
		L961.79,966.32L961.79,966.32z"/>
</g>
</svg>
