<svg version="1.1" id="heart-full" xmlns="http://www.w3.org/2000/svg" xmlns:xlink="http://www.w3.org/1999/xlink" x="0px" y="0px"
	viewBox="0 0 1920 1080" style="enable-background:new 0 0 1920 1080;" xml:space="preserve">
<style type="text/css">
	.st0{fill:#C1272D;}
</style>
<g>
	<path class="st0" d="M567.2,614.65c-52.57-52.57-86.09-110.16-99.65-171.17c-12.07-54.35-7.38-109.81,13.57-160.4
		c20.13-48.59,53.85-90.12,97.53-120.11c44.76-30.74,96.83-46.98,150.58-46.98c81.25,0,160.92,36.73,230.41,106.22l0.35,0.35
		l0.35-0.35c68.95-68.95,148.12-105.4,228.94-105.4c53.83,0,106.01,16.32,150.92,47.19c43.82,30.12,77.64,71.8,97.83,120.52
		c20.91,50.47,25.64,105.75,13.69,159.86c-13.41,60.74-46.7,118.03-98.94,170.27L960,1007.44L567.2,614.65z"/>
	<path d="M729.23,116.48c81.11,0,160.67,36.68,230.06,106.07l0.71,0.71l0.71-0.71c68.85-68.85,147.89-105.25,228.61-105.25
		c53.72,0,105.8,16.29,150.62,47.11c21.56,14.82,40.87,32.64,57.41,52.97c16.67,20.49,30.21,43.15,40.22,67.33
		c20.87,50.38,25.59,105.55,13.67,159.56c-6.43,29.11-17.68,57.9-33.43,85.58c-16.74,29.39-38.73,57.8-65.37,84.44L960,1006.74
		L567.56,614.29c-26.81-26.81-48.95-55.38-65.81-84.93c-15.87-27.82-27.21-56.75-33.71-85.99c-12.05-54.25-7.37-109.61,13.55-160.1
		c9.99-24.12,23.48-46.7,40.1-67.12c16.49-20.26,35.75-38.01,57.25-52.77C623.62,132.7,675.59,116.48,729.23,116.48 M729.23,115.48
		c-221.64,0-385.58,276.32-162.38,499.52L960,1008.15L1353.15,615c222.34-222.34,57.6-498.72-163.86-498.7
		c-74.2,0.01-154.79,31.05-229.3,105.55C884.9,146.75,803.81,115.48,729.23,115.48L729.23,115.48z"/>
</g>
</svg>
